<svg xmlns="http://www.w3.org/2000/svg" width="900" height="500"><path d="M 2.5e-6,5e-6 V 500 H 900 V 5e-6 Z" fill="#fff"/><path d="m 0,220 h 900 v 60 H 0 Z" fill="#da2d1c" fill-rule="evenodd"/><path d="M 480,0 V 500.00001 H 420 V 0 Z" fill="#da2d1c" fill-rule="evenodd"/><path fill="#2042a1" fill-rule="evenodd" d="M0 0H420V220H0z"/><g transform="matrix(1.0111111,0,0,1.0111111,110.55022,-413.63526) matrix(0.88682309,0,0,0.88682309,-123.34884,403.11575)" fill="#fff"><path d="m 250,46.625 46.06767,141.78171 -120.60672,-87.62592 h 149.0781 l -120.60672,87.62592 z"/><path d="m 250,171.2 19.39691,59.69756 -50.78178,-36.89512 h 62.76974 l -50.78178,36.89512 z"/><path d="m 206.06118,139.27659 -50.78177,36.89512 19.39691,-59.69756 19.39691,59.69756 -50.78177,-36.89512 z"/><path d="M 222.84432,87.623411 172.06255,50.728289 h 62.76973 L 184.0505,87.623411 203.44741,27.92585 Z"/><path d="M 277.15568,87.623411 296.55259,27.92585 315.9495,87.623411 265.16772,50.728289 h 62.76973 z"/><path d="m 293.93882,139.27659 h 62.76972 l -50.78177,36.89512 19.39691,-59.69756 19.39691,59.69756 z"/></g></svg>